<?xml version="1.0" encoding="UTF-8"?>
<svg xmlns="http://www.w3.org/2000/svg" viewBox="0 0 640 400" role="img" aria-label="Meditaciones">
  <defs><linearGradient id="cover" x1="0" x2="1" y1="0" y2="1"><stop offset="0" stop-color="#4b2e2a"/><stop offset="1" stop-color="#b08d57"/></linearGradient></defs>
  <rect width="640" height="400" fill="#e9edf4"/>
  <g transform="translate(164 34)">
    <rect x="0" y="0" width="312" height="332" rx="14" fill="url(#cover)"/>
    <rect x="28" y="0" width="18" height="332" fill="#000" opacity=".18"/>
    <circle cx="250" cy="62" r="78" fill="#fff" opacity=".12"/>
    <g transform="translate(84 38)" fill="none" stroke="#f3d36b" stroke-width="10" stroke-linecap="round" stroke-linejoin="round" opacity=".95">
      <path d="M64 126c-18-18-26-38-24-62 2-30 22-52 54-58 28 10 46 30 50 60 4 25-4 46-22 64"/>
      <path d="M42 132h102M58 152h70"/>
      <path d="M94 10v112M60 54h68"/>
    </g>
    <text x="156" y="222" text-anchor="middle" font-family="Poppins, Segoe UI, Arial, sans-serif" font-size="34" font-weight="800" fill="#ffffff"><tspan x="156" dy="0">Meditaciones</tspan></text>
    <text x="156" y="304" text-anchor="middle" font-family="Poppins, Segoe UI, Arial, sans-serif" font-size="18" font-weight="700" fill="#ffffff" opacity=".74">Marco Aurelio</text>
  </g>
</svg>
