<?xml version="1.0" encoding="UTF-8"?>
<svg xmlns="http://www.w3.org/2000/svg" viewBox="0 0 640 400" role="img" aria-label="Pensar rapido, pensar despacio">
  <defs><linearGradient id="cover" x1="0" x2="1" y1="0" y2="1"><stop offset="0" stop-color="#243b53"/><stop offset="1" stop-color="#d9a441"/></linearGradient></defs>
  <rect width="640" height="400" fill="#e9edf4"/>
  <g transform="translate(164 34)">
    <rect x="0" y="0" width="312" height="332" rx="14" fill="url(#cover)"/>
    <rect x="28" y="0" width="18" height="332" fill="#000" opacity=".18"/>
    <circle cx="250" cy="62" r="78" fill="#fff" opacity=".12"/>
    <g transform="translate(70 44)" fill="none" stroke="#ffffff" stroke-linecap="round" stroke-linejoin="round">
      <path d="M52 106c-22-10-34-28-34-50 0-29 23-48 52-48 20 0 36 8 46 23 10-15 26-23 46-23 29 0 52 19 52 48 0 22-12 40-34 50" stroke-width="11" opacity=".88"/>
      <path d="M116 31v90M82 56h68M76 88h80" stroke-width="9" opacity=".72"/>
    </g>
    <text x="156" y="206" text-anchor="middle" font-family="Poppins, Segoe UI, Arial, sans-serif" font-size="32" font-weight="800" fill="#ffffff"><tspan x="156" dy="0">Pensar rapido,</tspan><tspan x="156" dy="38">pensar despacio</tspan></text>
    <text x="156" y="304" text-anchor="middle" font-family="Poppins, Segoe UI, Arial, sans-serif" font-size="18" font-weight="700" fill="#ffffff" opacity=".74">Daniel Kahneman</text>
  </g>
</svg>
