<?xml version="1.0" encoding="UTF-8"?>
<svg xmlns="http://www.w3.org/2000/svg" viewBox="0 0 640 400" role="img" aria-label="Los 53 sutras de Buda">
  <defs><linearGradient id="cover" x1="0" x2="1" y1="0" y2="1"><stop offset="0" stop-color="#275d5a"/><stop offset="1" stop-color="#e6b450"/></linearGradient></defs>
  <rect width="640" height="400" fill="#e9edf4"/>
  <g transform="translate(164 34)">
    <rect x="0" y="0" width="312" height="332" rx="14" fill="url(#cover)"/>
    <rect x="28" y="0" width="18" height="332" fill="#000" opacity=".18"/>
    <circle cx="250" cy="62" r="78" fill="#fff" opacity=".12"/>
    <g transform="translate(78 42)" fill="#ffffff" opacity=".86">
      <circle cx="78" cy="40" r="34"/>
      <path d="M78 82c-36 0-66 24-78 64 24-16 48-20 78-20s54 4 78 20c-12-40-42-64-78-64z"/>
      <path d="M44 146c12-12 24-18 34-18s22 6 34 18c-8 14-20 22-34 22s-26-8-34-22z" fill="#f3d36b" opacity=".9"/>
    </g>
    <text x="156" y="206" text-anchor="middle" font-family="Poppins, Segoe UI, Arial, sans-serif" font-size="32" font-weight="800" fill="#ffffff"><tspan x="156" dy="0">Los 53 sutras</tspan><tspan x="156" dy="38">de Buda</tspan></text>
    <text x="156" y="304" text-anchor="middle" font-family="Poppins, Segoe UI, Arial, sans-serif" font-size="18" font-weight="700" fill="#ffffff" opacity=".74">Buda</text>
  </g>
</svg>
