<?xml version="1.0" encoding="UTF-8"?>
<svg xmlns="http://www.w3.org/2000/svg" viewBox="0 0 640 400" role="img" aria-label="Desapegarse sin anestesia">
  <defs><linearGradient id="cover" x1="0" x2="1" y1="0" y2="1"><stop offset="0" stop-color="#25364f"/><stop offset="1" stop-color="#7cc7b8"/></linearGradient></defs>
  <rect width="640" height="400" fill="#e9edf4"/>
  <g transform="translate(164 34)">
    <rect x="0" y="0" width="312" height="332" rx="14" fill="url(#cover)"/>
    <rect x="28" y="0" width="18" height="332" fill="#000" opacity=".18"/>
    <circle cx="250" cy="62" r="78" fill="#fff" opacity=".12"/>
    <g transform="translate(76 44)"><path d="M28 32h44c18 0 28 10 28 28v82c0-14-10-22-28-22H28zM100 60c0-18 10-28 28-28h32v88h-32c-18 0-28 8-28 22z" fill="#f3d36b" opacity=".95"/></g>
    <text x="156" y="214" text-anchor="middle" font-family="Poppins, Segoe UI, Arial, sans-serif" font-size="34" font-weight="800" fill="#ffffff"><tspan x="156" dy="0">Desapegarse sin</tspan><tspan x="156" dy="40">anestesia</tspan></text>
    <text x="156" y="304" text-anchor="middle" font-family="Poppins, Segoe UI, Arial, sans-serif" font-size="18" font-weight="700" fill="#ffffff" opacity=".74">Walter Riso</text>
  </g>
</svg>