<?xml version="1.0" encoding="UTF-8"?>
<svg xmlns="http://www.w3.org/2000/svg" viewBox="0 0 640 400" role="img" aria-label="Habitos atomicos">
  <defs><linearGradient id="cover" x1="0" x2="1" y1="0" y2="1"><stop offset="0" stop-color="#314d3f"/><stop offset="1" stop-color="#8cc084"/></linearGradient></defs>
  <rect width="640" height="400" fill="#e9edf4"/>
  <g transform="translate(164 34)">
    <rect x="0" y="0" width="312" height="332" rx="14" fill="url(#cover)"/>
    <rect x="28" y="0" width="18" height="332" fill="#000" opacity=".18"/>
    <circle cx="250" cy="62" r="78" fill="#fff" opacity=".12"/>
    <g transform="translate(76 42)" fill="none" stroke="#ffffff" stroke-linecap="round" stroke-linejoin="round">
      <circle cx="80" cy="82" r="52" stroke-width="10" opacity=".86"/>
      <circle cx="80" cy="82" r="12" fill="#f3d36b" stroke="none"/>
      <path d="M80 30v-18M80 152v-18M28 82H10M150 82h-18M43 45 30 32M117 119l13 13M117 45l13-13M43 119l-13 13" stroke-width="8" opacity=".65"/>
    </g>
    <text x="156" y="206" text-anchor="middle" font-family="Poppins, Segoe UI, Arial, sans-serif" font-size="34" font-weight="800" fill="#ffffff"><tspan x="156" dy="0">Habitos</tspan><tspan x="156" dy="40">atomicos</tspan></text>
    <text x="156" y="304" text-anchor="middle" font-family="Poppins, Segoe UI, Arial, sans-serif" font-size="18" font-weight="700" fill="#ffffff" opacity=".74">James Clear</text>
  </g>
</svg>
