<?xml version="1.0" encoding="UTF-8"?>
<svg xmlns="http://www.w3.org/2000/svg" viewBox="0 0 1000 720" role="img" aria-label="Conocimiento">
  <defs>
    <linearGradient id="bg" x1="0" x2="1" y1="0" y2="1"><stop offset="0" stop-color="#243b55"/><stop offset=".55" stop-color="#4e54c8"/><stop offset="1" stop-color="#7cc7b8"/></linearGradient>
    <radialGradient id="glow" cx="68%" cy="30%" r="42%"><stop offset="0" stop-color="#fff3b0" stop-opacity=".75"/><stop offset="1" stop-color="#fff3b0" stop-opacity="0"/></radialGradient>
  </defs>
  <rect width="1000" height="720" fill="url(#bg)"/>
  <rect width="1000" height="720" fill="url(#glow)"/>
  <g fill="none" stroke="#ffffff" stroke-opacity=".18" stroke-width="2">
    <path d="M120 150h760M120 260h760M120 370h760M120 480h760M120 590h760"/>
    <path d="M180 90v560M340 90v560M500 90v560M660 90v560M820 90v560"/>
  </g>
  <g transform="translate(190 170)">
    <path d="M80 58h184c68 0 108 38 108 104v330c0-54-38-82-108-82H80z" fill="#fff" opacity=".92"/>
    <path d="M372 162c0-66 40-104 108-104h152v352H480c-70 0-108 28-108 82z" fill="#f7f9ff" opacity=".96"/>
    <path d="M138 142h166M138 206h166M138 270h126M460 142h118M460 206h132M460 270h98" stroke="#4e54c8" stroke-width="18" stroke-linecap="round" opacity=".7"/>
    <circle cx="372" cy="92" r="34" fill="#f3d36b"/>
  </g>
  <text x="500" y="645" text-anchor="middle" font-family="Poppins, Segoe UI, Arial, sans-serif" font-size="58" font-weight="800" fill="#ffffff">StevePedia</text>
</svg>